<svg xmlns="http://www.w3.org/2000/svg" xmlns:xlink="http://www.w3.org/1999/xlink" viewBox="50 145 294 85" preserveAspectRatio="xMidYMid meet" version="1.0"><defs><g/><clipPath id="06be668667"><path d="M 56.488281 151.464844 L 337.492188 151.464844 L 337.492188 223.464844 L 56.488281 223.464844 Z M 56.488281 151.464844 " clip-rule="nonzero"/></clipPath><clipPath id="586faa083a"><path d="M 63.558594 158.238281 L 242.984375 158.238281 L 242.984375 216.761719 L 63.558594 216.761719 Z M 63.558594 158.238281 " clip-rule="nonzero"/></clipPath><clipPath id="8906eae86c"><path d="M 0.558594 0.238281 L 179.984375 0.238281 L 179.984375 58.761719 L 0.558594 58.761719 Z M 0.558594 0.238281 " clip-rule="nonzero"/></clipPath><clipPath id="74e037377e"><rect x="0" width="180" y="0" height="59"/></clipPath><clipPath id="f725654f19"><rect x="0" width="85" y="0" height="42"/></clipPath></defs><g clip-path="url(#06be668667)"><path stroke-linecap="butt" transform="matrix(0.75, 0, 0, 0.75, 56.489269, 151.464614)" fill="none" stroke-linejoin="miter" d="M -0.00131672 0.000306262 L 374.670607 0.000306262 L 374.670607 96.094069 L -0.00131672 96.094069 Z M -0.00131672 0.000306262 " stroke="#2d5a47" stroke-width="6" stroke-opacity="1" stroke-miterlimit="4"/></g><g clip-path="url(#586faa083a)"><g transform="matrix(1, 0, 0, 1, 63, 158)"><g clip-path="url(#74e037377e)"><g clip-path="url(#8906eae86c)"><path fill="#2d5a47" d="M 0.558594 0.238281 L 180.023438 0.238281 L 180.023438 58.761719 L 0.558594 58.761719 Z M 0.558594 0.238281 " fill-opacity="1" fill-rule="nonzero"/></g></g></g></g><g fill="#ffffff" fill-opacity="1"><g transform="translate(70.276128, 196.618259)"><g><path d="M 2.859375 0 L 2.859375 -19.671875 L 5.171875 -19.671875 L 12.890625 -8 L 20.5625 -19.671875 L 22.875 -19.671875 L 22.875 0 L 20.390625 0 L 20.390625 -15.03125 L 13.875 -5.21875 L 11.859375 -5.21875 L 5.34375 -15.0625 L 5.34375 0 Z M 2.859375 0 "/></g></g></g><g fill="#ffffff" fill-opacity="1"><g transform="translate(98.130439, 196.618259)"><g><path d="M 0.484375 0 L 8.5625 -19.671875 L 10.875 -19.671875 L 18.96875 0 L 16.34375 0 L 14.5 -4.46875 L 4.921875 -4.46875 L 3.125 0 Z M 5.875 -6.765625 L 13.5625 -6.765625 L 9.71875 -16.203125 Z M 5.875 -6.765625 "/></g></g></g><g fill="#ffffff" fill-opacity="1"><g transform="translate(119.695261, 196.618259)"><g><path d="M 9.40625 0.359375 C 7.832031 0.359375 6.46875 0.0898438 5.3125 -0.4375 C 4.164062 -0.96875 3.28125 -1.710938 2.65625 -2.671875 C 2.03125 -3.640625 1.707031 -4.765625 1.6875 -6.046875 L 4.15625 -6.046875 C 4.195312 -4.785156 4.695312 -3.796875 5.65625 -3.078125 C 6.625 -2.359375 7.875 -2 9.40625 -2 C 10.789062 -2 11.890625 -2.269531 12.703125 -2.8125 C 13.523438 -3.351562 13.9375 -4.109375 13.9375 -5.078125 C 13.9375 -6.003906 13.539062 -6.742188 12.75 -7.296875 C 11.96875 -7.847656 10.6875 -8.328125 8.90625 -8.734375 C 6.488281 -9.316406 4.71875 -10.0625 3.59375 -10.96875 C 2.46875 -11.875 1.90625 -13.085938 1.90625 -14.609375 C 1.90625 -16.273438 2.535156 -17.59375 3.796875 -18.5625 C 5.066406 -19.539062 6.78125 -20.03125 8.9375 -20.03125 C 11.144531 -20.03125 12.890625 -19.476562 14.171875 -18.375 C 15.453125 -17.269531 16.101562 -15.757812 16.125 -13.84375 L 13.6875 -13.84375 C 13.664062 -15.03125 13.226562 -15.960938 12.375 -16.640625 C 11.519531 -17.328125 10.375 -17.671875 8.9375 -17.671875 C 7.53125 -17.671875 6.425781 -17.394531 5.625 -16.84375 C 4.832031 -16.289062 4.4375 -15.546875 4.4375 -14.609375 C 4.4375 -13.804688 4.804688 -13.128906 5.546875 -12.578125 C 6.285156 -12.023438 7.613281 -11.515625 9.53125 -11.046875 C 12.03125 -10.421875 13.8125 -9.644531 14.875 -8.71875 C 15.945312 -7.789062 16.484375 -6.609375 16.484375 -5.171875 C 16.484375 -3.460938 15.84375 -2.113281 14.5625 -1.125 C 13.28125 -0.132812 11.5625 0.359375 9.40625 0.359375 Z M 9.40625 0.359375 "/></g></g></g><g fill="#ffffff" fill-opacity="1"><g transform="translate(139.996575, 196.618259)"><g><path d="M 2.859375 0 L 2.859375 -19.671875 L 5.203125 -19.671875 L 16.0625 -4.265625 L 16.0625 -19.671875 L 18.484375 -19.671875 L 18.484375 0 L 16.1875 0 L 5.3125 -15.390625 L 5.3125 0 Z M 2.859375 0 "/></g></g></g><g fill="#ffffff" fill-opacity="1"><g transform="translate(163.470706, 196.618259)"><g><path d="M 11.796875 0.359375 C 9.816406 0.359375 8.054688 -0.0703125 6.515625 -0.9375 C 4.984375 -1.8125 3.785156 -3.015625 2.921875 -4.546875 C 2.054688 -6.085938 1.625 -7.847656 1.625 -9.828125 C 1.625 -11.835938 2.054688 -13.601562 2.921875 -15.125 C 3.785156 -16.65625 4.984375 -17.851562 6.515625 -18.71875 C 8.054688 -19.59375 9.816406 -20.03125 11.796875 -20.03125 C 13.804688 -20.03125 15.570312 -19.59375 17.09375 -18.71875 C 18.625 -17.851562 19.820312 -16.65625 20.6875 -15.125 C 21.5625 -13.601562 22 -11.835938 22 -9.828125 C 22 -7.847656 21.5625 -6.085938 20.6875 -4.546875 C 19.820312 -3.015625 18.625 -1.8125 17.09375 -0.9375 C 15.570312 -0.0703125 13.804688 0.359375 11.796875 0.359375 Z M 4.15625 -9.828125 C 4.15625 -8.316406 4.476562 -6.976562 5.125 -5.8125 C 5.769531 -4.65625 6.664062 -3.75 7.8125 -3.09375 C 8.96875 -2.4375 10.296875 -2.109375 11.796875 -2.109375 C 13.316406 -2.109375 14.644531 -2.4375 15.78125 -3.09375 C 16.925781 -3.75 17.820312 -4.65625 18.46875 -5.8125 C 19.113281 -6.976562 19.4375 -8.316406 19.4375 -9.828125 C 19.4375 -11.367188 19.113281 -12.710938 18.46875 -13.859375 C 17.820312 -15.015625 16.925781 -15.921875 15.78125 -16.578125 C 14.644531 -17.234375 13.316406 -17.5625 11.796875 -17.5625 C 10.296875 -17.5625 8.96875 -17.234375 7.8125 -16.578125 C 6.664062 -15.921875 5.769531 -15.015625 5.125 -13.859375 C 4.476562 -12.710938 4.15625 -11.367188 4.15625 -9.828125 Z M 4.15625 -9.828125 "/></g></g></g><g fill="#ffffff" fill-opacity="1"><g transform="translate(189.191083, 196.618259)"><g><path d="M 11.796875 0.359375 C 9.816406 0.359375 8.054688 -0.0703125 6.515625 -0.9375 C 4.984375 -1.8125 3.785156 -3.015625 2.921875 -4.546875 C 2.054688 -6.085938 1.625 -7.847656 1.625 -9.828125 C 1.625 -11.835938 2.054688 -13.601562 2.921875 -15.125 C 3.785156 -16.65625 4.984375 -17.851562 6.515625 -18.71875 C 8.054688 -19.59375 9.816406 -20.03125 11.796875 -20.03125 C 13.804688 -20.03125 15.570312 -19.59375 17.09375 -18.71875 C 18.625 -17.851562 19.820312 -16.65625 20.6875 -15.125 C 21.5625 -13.601562 22 -11.835938 22 -9.828125 C 22 -7.847656 21.5625 -6.085938 20.6875 -4.546875 C 19.820312 -3.015625 18.625 -1.8125 17.09375 -0.9375 C 15.570312 -0.0703125 13.804688 0.359375 11.796875 0.359375 Z M 4.15625 -9.828125 C 4.15625 -8.316406 4.476562 -6.976562 5.125 -5.8125 C 5.769531 -4.65625 6.664062 -3.75 7.8125 -3.09375 C 8.96875 -2.4375 10.296875 -2.109375 11.796875 -2.109375 C 13.316406 -2.109375 14.644531 -2.4375 15.78125 -3.09375 C 16.925781 -3.75 17.820312 -4.65625 18.46875 -5.8125 C 19.113281 -6.976562 19.4375 -8.316406 19.4375 -9.828125 C 19.4375 -11.367188 19.113281 -12.710938 18.46875 -13.859375 C 17.820312 -15.015625 16.925781 -15.921875 15.78125 -16.578125 C 14.644531 -17.234375 13.316406 -17.5625 11.796875 -17.5625 C 10.296875 -17.5625 8.96875 -17.234375 7.8125 -16.578125 C 6.664062 -15.921875 5.769531 -15.015625 5.125 -13.859375 C 4.476562 -12.710938 4.15625 -11.367188 4.15625 -9.828125 Z M 4.15625 -9.828125 "/></g></g></g><g fill="#ffffff" fill-opacity="1"><g transform="translate(214.911461, 196.618259)"><g><path d="M 2.859375 0 L 2.859375 -19.671875 L 5.203125 -19.671875 L 16.0625 -4.265625 L 16.0625 -19.671875 L 18.484375 -19.671875 L 18.484375 0 L 16.1875 0 L 5.3125 -15.390625 L 5.3125 0 Z M 2.859375 0 "/></g></g></g><g transform="matrix(1, 0, 0, 1, 245, 166)"><g clip-path="url(#f725654f19)"><g fill="#2d5a47" fill-opacity="1"><g transform="translate(1.104161, 30.769512)"><g><path d="M 2.078125 0 L 2.078125 -19.671875 L 10.421875 -19.671875 C 12.535156 -19.671875 14.382812 -19.257812 15.96875 -18.4375 C 17.550781 -17.625 18.78125 -16.476562 19.65625 -15 C 20.539062 -13.519531 20.984375 -11.796875 20.984375 -9.828125 C 20.984375 -7.867188 20.539062 -6.144531 19.65625 -4.65625 C 18.78125 -3.175781 17.550781 -2.03125 15.96875 -1.21875 C 14.382812 -0.40625 12.535156 0 10.421875 0 Z M 7.75 -5.078125 L 10.25 -5.078125 C 11.75 -5.078125 12.945312 -5.507812 13.84375 -6.375 C 14.75 -7.238281 15.203125 -8.390625 15.203125 -9.828125 C 15.203125 -11.273438 14.75 -12.425781 13.84375 -13.28125 C 12.945312 -14.144531 11.75 -14.578125 10.25 -14.578125 L 7.75 -14.578125 Z M 7.75 -5.078125 "/></g></g></g><g fill="#2d5a47" fill-opacity="1"><g transform="translate(23.038552, 30.769512)"><g><path d="M 10.53125 0.421875 C 8.769531 0.421875 7.242188 0.0820312 5.953125 -0.59375 C 4.660156 -1.28125 3.660156 -2.257812 2.953125 -3.53125 C 2.253906 -4.8125 1.90625 -6.332031 1.90625 -8.09375 L 1.90625 -19.671875 L 7.578125 -19.671875 L 7.578125 -8.453125 C 7.578125 -6.078125 8.5625 -4.890625 10.53125 -4.890625 C 12.5 -4.890625 13.484375 -6.078125 13.484375 -8.453125 L 13.484375 -19.671875 L 19.125 -19.671875 L 19.125 -8.09375 C 19.125 -6.332031 18.773438 -4.8125 18.078125 -3.53125 C 17.390625 -2.257812 16.40625 -1.28125 15.125 -0.59375 C 13.84375 0.0820312 12.3125 0.421875 10.53125 0.421875 Z M 10.53125 0.421875 "/></g></g></g><g fill="#2d5a47" fill-opacity="1"><g transform="translate(44.102318, 30.769512)"><g><path d="M 0.140625 0 L 7.78125 -19.671875 L 13.40625 -19.671875 L 21.046875 0 L 15 0 L 13.9375 -2.78125 L 7.21875 -2.78125 L 6.15625 0 Z M 8.40625 -6.9375 L 12.78125 -6.9375 L 10.59375 -13.03125 Z M 8.40625 -6.9375 "/></g></g></g><g fill="#2d5a47" fill-opacity="1"><g transform="translate(65.278415, 30.769512)"><g><path d="M 9.125 0.421875 C 6.582031 0.421875 4.585938 -0.179688 3.140625 -1.390625 C 1.703125 -2.597656 0.984375 -4.257812 0.984375 -6.375 L 6.46875 -6.375 C 6.46875 -5.625 6.695312 -5.035156 7.15625 -4.609375 C 7.613281 -4.191406 8.242188 -3.984375 9.046875 -3.984375 C 9.734375 -3.984375 10.273438 -4.117188 10.671875 -4.390625 C 11.066406 -4.660156 11.265625 -5.039062 11.265625 -5.53125 C 11.265625 -6.613281 10.082031 -7.390625 7.71875 -7.859375 C 3.320312 -8.703125 1.125 -10.773438 1.125 -14.078125 C 1.125 -15.929688 1.789062 -17.394531 3.125 -18.46875 C 4.46875 -19.550781 6.300781 -20.09375 8.625 -20.09375 C 10.238281 -20.09375 11.640625 -19.816406 12.828125 -19.265625 C 14.015625 -18.722656 14.929688 -17.953125 15.578125 -16.953125 C 16.222656 -15.953125 16.546875 -14.773438 16.546875 -13.421875 L 11.203125 -13.421875 C 11.203125 -14.171875 10.988281 -14.742188 10.5625 -15.140625 C 10.132812 -15.535156 9.523438 -15.734375 8.734375 -15.734375 C 8.078125 -15.734375 7.550781 -15.597656 7.15625 -15.328125 C 6.769531 -15.054688 6.578125 -14.675781 6.578125 -14.1875 C 6.578125 -13.675781 6.835938 -13.253906 7.359375 -12.921875 C 7.878906 -12.585938 8.769531 -12.28125 10.03125 -12 C 12.425781 -11.46875 14.171875 -10.703125 15.265625 -9.703125 C 16.359375 -8.703125 16.90625 -7.390625 16.90625 -5.765625 C 16.90625 -3.828125 16.222656 -2.3125 14.859375 -1.21875 C 13.492188 -0.125 11.582031 0.421875 9.125 0.421875 Z M 9.125 0.421875 "/></g></g></g></g></g></svg>